<?xml version="1.0" standalone="no"?><!DOCTYPE svg PUBLIC "-//W3C//DTD SVG 1.1//EN" "http://www.w3.org/Graphics/SVG/1.1/DTD/svg11.dtd"><svg t="1561781227499" class="icon" viewBox="0 0 1024 1024" version="1.1" xmlns="http://www.w3.org/2000/svg" p-id="2021" xmlns:xlink="http://www.w3.org/1999/xlink" width="200" height="200"><defs><style type="text/css"></style></defs><path d="M595.2 755.2h128v88.32l231.68-133.12L723.2 576v89.6h-128zM266.24 134.4c0-6.4 6.4-12.8 12.8-12.8H652.8c3.84 0 7.68 0 12.8 1.28v198.4h198.4c1.28 5.12 1.28 29.44 1.28 33.28v252.16l49.92 30.72v-281.6c0-34.56-20.48-102.4-43.52-126.72l-111.36-111.36c-24.32-24.32-71.68-43.52-106.24-43.52H279.04c-34.56 0-62.72 28.16-62.72 62.72v125.44h49.92v-128z m449.28 10.24c3.84 2.56 6.4 5.12 8.96 7.68l111.36 111.36c2.56 2.56 5.12 5.12 7.68 8.96h-128v-128z" fill="#1E7145" p-id="2022"></path><path d="M595.2 385.28h204.8v58.88h-204.8zM865.28 888.32c0 6.4-6.4 12.8-12.8 12.8H279.04c-6.4 0-12.8-6.4-12.8-12.8v-42.24h-49.92v42.24c0 34.56 28.16 62.72 62.72 62.72h574.72c34.56 0 62.72-28.16 62.72-62.72v-104.96l-49.92 29.44v75.52zM537.6 320H69.12v468.48H537.6V320zM367.36 687.36l-64-94.72-28.16 43.52h28.16v52.48H160l104.96-153.6L172.8 396.8h76.8l55.04 80.64 55.04-80.64h76.8l-92.16 138.24 104.96 153.6h-81.92zM595.2 501.76h204.8v58.88h-204.8z" fill="#1E7145" p-id="2023"></path></svg>