<?xml version="1.0" standalone="no"?><!DOCTYPE svg PUBLIC "-//W3C//DTD SVG 1.1//EN" "http://www.w3.org/Graphics/SVG/1.1/DTD/svg11.dtd"><svg t="1559206362066" class="icon" style="" viewBox="0 0 1024 1024" version="1.1" xmlns="http://www.w3.org/2000/svg" p-id="3730" xmlns:xlink="http://www.w3.org/1999/xlink" width="200" height="200"><defs><style type="text/css"></style></defs><path d="M571.297816 0.332953l360.469591 42.92615a55.033525 55.033525 0 0 1 48.429502 47.879167l42.92615 361.019926a55.033525 55.033525 0 0 1-15.409387 45.677826L495.351551 1007.996801a55.033525 55.033525 0 0 1-77.59727 0L16.009546 605.701731a55.033525 55.033525 0 0 1 0-77.59727L526.170326 16.292675a55.033525 55.033525 0 0 1 45.12749-15.959722z m128.228114 323.597129a97.40934 97.40934 0 1 0 0-137.583814 97.40934 97.40934 0 0 0 0 138.134149z" fill="" p-id="3731"></path></svg>