<?xml version="1.0" standalone="no"?><!DOCTYPE svg PUBLIC "-//W3C//DTD SVG 1.1//EN" "http://www.w3.org/Graphics/SVG/1.1/DTD/svg11.dtd"><svg t="1559205958136" class="icon" style="" viewBox="0 0 1024 1024" version="1.1" xmlns="http://www.w3.org/2000/svg" p-id="2961" xmlns:xlink="http://www.w3.org/1999/xlink" width="200" height="200"><defs><style type="text/css"></style></defs><path d="M935.936 913.92h-109.568v109.056H788.48v-109.056h-109.056V875.52H788.48v-109.056h37.888V875.52h109.568v38.4z" p-id="2962"></path><path d="M299.008 799.744c-8.704 0-15.872 7.168-15.872 15.872 0 8.704 7.168 15.872 15.872 15.872h368.128v-31.744H299.008zM714.752 671.744H299.008c-8.704 0-15.872 7.168-15.872 15.872 0 8.704 7.168 15.872 15.872 15.872h416.256c8.704 0 15.872-7.168 15.872-15.872 0-8.704-7.168-15.872-16.384-15.872zM491.008 320c8.704 0 15.872-7.168 15.872-15.872 0-8.704-7.168-15.872-15.872-15.872H299.008c-8.704 0-15.872 7.168-15.872 15.872 0 8.704 7.168 15.872 15.872 15.872h192zM714.752 543.744H299.008c-8.704 0-15.872 7.168-15.872 15.872 0 8.704 7.168 15.872 15.872 15.872h416.256c8.704 0 15.872-7.168 15.872-15.872 0-8.704-7.168-15.872-16.384-15.872z" p-id="2963"></path><path d="M890.368 302.592c0-0.512 0-1.536-0.512-2.048-0.512-2.048-1.536-4.096-3.072-6.144 0-0.512 0-0.512-0.512-1.024L630.784 5.12h-0.512c-2.048-2.048-4.608-3.584-7.168-4.096-0.512 0-1.024-0.512-1.536-0.512-1.024 0-1.536-0.512-2.56-0.512H171.008C144.384 0 122.88 21.504 122.88 48.128v927.744c0 26.624 21.504 48.128 48.128 48.128h501.248v-32.256H171.008c-9.216 0-15.872-7.168-15.872-15.872V48.128c0-8.704 7.168-15.872 15.872-15.872h432.128v231.936c0 26.112 20.992 55.808 48.128 55.808h207.872v425.984h32.256V304.128c-0.512-0.512-0.512-1.024-1.024-1.536z m-239.616-14.336c-7.168 0-15.872-13.312-15.872-24.064V57.856l204.288 229.888h-188.416z" p-id="2964"></path><path d="M714.752 416.256H299.008c-8.704 0-15.872 7.168-15.872 15.872 0 8.704 7.168 15.872 15.872 15.872h416.256c8.704 0 15.872-7.168 15.872-15.872 0-8.704-7.168-15.872-16.384-15.872zM634.88 57.856z" p-id="2965"></path></svg>